<svg xmlns="http://www.w3.org/2000/svg"  viewBox="0 0 50 50" width="40px" height="40px"><path d="M 5 4 A 1.0001 1.0001 0 0 0 4 5 L 4 45 A 1.0001 1.0001 0 0 0 5 46 L 45 46 A 1.0001 1.0001 0 0 0 46 45 L 46 26.167969 A 1.0001 1.0001 0 0 0 46 25.841797 L 46 5 A 1.0001 1.0001 0 0 0 45 4 L 5 4 z M 11.5 10.5 L 17.5 10.5 L 17.5 22 A 0.50005 0.50005 0 0 0 18.339844 22.367188 L 31.195312 10.5 L 39.755859 10.5 C 33.989257 15.992863 27.194954 22.547967 25.880859 23.810547 A 0.50005 0.50005 0 0 0 25.851562 24.501953 L 26.289062 25 L 11.5 25 L 11.5 10.5 z M 6 27 L 10.5 27 L 10.5 41 A 0.50005 0.50005 0 0 0 11 41.5 L 18 41.5 A 0.50005 0.50005 0 0 0 18.5 41 L 18.5 32.212891 L 21.013672 29.800781 L 30.615234 41.320312 A 0.50005 0.50005 0 0 0 31 41.5 L 41 41.5 A 0.50005 0.50005 0 0 0 41.375 40.669922 L 29.376953 27 L 44 27 L 44 44 L 6 44 L 6 27 z"/></svg>